<svg data-v-0dd9719b="" version="1.0" xmlns="http://www.w3.org/2000/svg" xmlns:xlink="http://www.w3.org/1999/xlink" width="100%" height="100%" viewBox="0 0 340.000000 250.000000" preserveAspectRatio="xMidYMid meet" color-interpolation-filters="sRGB" style="margin: auto;"> <rect data-v-0dd9719b="" x="0" y="0" width="100%" height="100%" fill="#fff" fill-opacity="1" class="background"></rect> <rect data-v-0dd9719b="" x="0" y="0" width="100%" height="100%" fill="url(#watermark)" fill-opacity="1" class="watermarklayer"></rect> <g data-v-0dd9719b="" fill="#333" class="icon-text-wrapper icon-svg-group iconsvg" transform="translate(48.93000030517578,94.07790184020996)"><g class="iconsvg-imagesvg" transform="translate(0,0)"><g><rect fill="#333" fill-opacity="0" stroke-width="2" x="0" y="0" width="60" height="61.84419386093302" class="image-rect"></rect> <svg x="0" y="0" width="60" height="61.84419386093302" filtersec="colorsb559798277" class="image-svg-svg primary" style="overflow: visible;"><svg xmlns="http://www.w3.org/2000/svg" viewBox="-0.00007700920104980469 0 123.22541809082031 127.01274871826172"><title>资源 98</title><path d="M61.38 89.86c-1.74-.15-3.48-.44-5.21-.45-10.33 0-20.66 0-31-.08a6 6 0 0 1-3.73-1.5C15.2 81.74 9.06 75.52 2.92 69.3-.94 65.4-1 62.55 2.9 58.61c10.9-11 21.88-21.9 32.82-32.85C44.3 17.17 52.86 8.55 61.37 0l19.07 19.2c-4.69 4.65-9.53 9.43-14.35 14.24-9.48 9.46-18.92 19-28.46 28.39-1.59 1.57-1.72 2.48 0 4.16 7.45 7.24 14.75 14.67 22.08 22a24.26 24.26 0 0 1 1.58 1.91z" fill="#fbc64d"></path><path d="M61.3 89.94a15.17 15.17 0 0 0 2.42-1.65Q74.46 77.66 85.14 67c3-3 3-3.19 0-6.14Q75 50.68 64.83 40.51c-.4-.4-.74-.85-1.46-1.71 1.17-.12 1.92-.26 2.67-.26 10.67 0 21.34 0 32 .08a5.94 5.94 0 0 1 3.66 1.56c6.33 6.15 12.53 12.43 18.76 18.68 3.63 3.65 3.72 6.39.07 10.08Q105 84.66 89.29 100.26c-8.48 8.49-17 16.93-25.42 25.47-1.59 1.62-2.61 1.77-4.25.08-4.86-5-9.86-9.92-14.85-14.83-1.32-1.29-1.49-2.27 0-3.7 5.13-5 10.15-10.11 15.17-15.21a14.14 14.14 0 0 0 1.47-2.21z" fill="#258bfa"></path></svg></svg> <!----></g></g> <g transform="translate(67,4.145847320556641)"><g data-gra="path-name" fill-rule="" class="tp-name iconsvg-namesvg" transform="translate(0,0)"><g transform="scale(1)"><g><path d="M37.57 3.55L37.57 3.55Q37.3 3.55 36.29 3.53 35.28 3.51 33.21 2.83L33.21 2.83 32.58-2.29 25.88-1.89Q25.88 1.44 25.83 2.97L25.83 2.97 19.08 2.88 19.26-1.67 11.25-1.4 11.16-6.66Q15.25-6.79 19.39-6.97L19.39-6.97Q19.39-8.59 19.35-9.54L19.35-9.54Q16.2-9.36 11.97-9.27L11.97-9.27 11.83-14.26 14.58-14.31 13.99-17.77 9.72-17.59Q9.81-11.12 9.81 3.46L9.81 3.46 2.83 3.46Q3.28-7.65 3.28-14.54L3.28-14.54Q3.28-20.97 3.24-23.89L3.24-23.89 9.49-24.21 9.54-23.49 18.95-23.8 19.13-26.19Q9.99-25.96 4.37-25.88L4.37-25.88 4.14-31.99Q10.44-32.04 19.17-32.31L19.17-32.31Q19.17-33.48 19.08-34.83L19.08-34.83 25.61-34.83 25.61-32.49Q34.92-32.71 40.63-32.76L40.63-32.76 41.09-26.59Q38.92-26.5 25.61-26.32L25.61-26.32 25.61-23.94 35.95-23.98Q38.2-23.98 39.91-23.29 41.63-22.59 42.21-19.71L42.21-19.71Q43.06-15.34 43.06-5.94L43.06-5.94Q43.06-2.83 42.86-0.94 42.66 0.94 41.98 1.93L41.98 1.93Q40.81 3.55 37.57 3.55ZM34.56-2.92L35.14-2.92Q36.18-3.06 36.27-4.23L36.27-4.23Q36.36-5 36.36-8.5L36.36-8.5Q36.36-9.67 36.29-12.67 36.23-15.66 35.82-16.81 35.41-17.95 34.06-18.09L34.06-18.09 30.51-18.09Q30.42-16.88 30.11-14.89L30.11-14.89 33.03-14.98 33.21-10.08 25.65-9.76 25.83-7.25 34.34-7.6 34.56-2.92ZM20.43-14.54L20.43-14.54Q23.4-14.58 24.34-14.63L24.34-14.63Q24.52-15.84 24.66-17.95L24.66-17.95 19.93-17.91Q20.29-16.11 20.43-14.54ZM59.13-18.54L59.13-18.54Q59.17-17.01 59.17-15.3L59.17-15.3Q60.75-15.3 76.68-15.39L76.68-15.39Q76.86-16.34 76.86-17.05L76.86-17.05 76.86-17.46Q76.86-18.63 75.02-18.81L75.02-18.81Q71.37-18.9 68.27-18.9L68.27-18.9Q61.97-18.9 59.13-18.54ZM87.75-0.72L81.13 2.52Q80.32 0.49 78.1-2.36 75.87-5.22 74.25-6.57L74.25-6.57 80.28-9.72Q82.03-8.55 83.92-6.39 85.81-4.23 87.75-0.72L87.75-0.72ZM52.52 2.65L47.79-2.11Q51.03-3.87 52.67-5.76 54.31-7.65 54.86-8.91L54.86-8.91 60.75-7.2Q59.67-3.78 57.24-0.99 54.81 1.8 52.52 2.65L52.52 2.65ZM72.36-10.21L72.36-10.21Q72.45-7.96 72.45-5.71L72.45-5.71Q72.36-0.77 70.25 0.94L70.25 0.94Q68.53 2.65 62.77 2.65L62.77 2.65 62.23 2.61 60.3-4.18Q61.06-3.82 62.37-3.78L62.37-3.78Q64.66-3.78 65.03-5.49L65.03-5.49Q65.52-6.08 65.52-9.67L65.52-9.67 65.52-10.08Q57.33-9.9 52.74-9.76L52.74-9.76 52.78-13.23Q52.78-18.59 52.56-22.86L52.56-22.86Q61.2-23.85 78.12-23.85L78.12-23.85Q83.84-23.58 83.84-17.82L83.84-17.82Q83.84-15.88 83.07-10.39L83.07-10.39Q77-10.3 72.36-10.21ZM47.43-25.06L47.43-25.06 47.25-31Q53.91-31.09 63.99-31.32L63.99-31.32Q63.95-31.81 63.05-33.57L63.05-33.57 70.16-34.2Q70.92-32.71 71.33-31.59L71.33-31.59Q80.23-31.99 87.12-32.13L87.12-32.13 87.66-26.23Q68.81-25.61 47.43-25.06ZM106.25-13.28L106.2 3.38 100.03 3.33Q100.62-9.09 100.62-9.99L100.62-9.99Q99.31-5.13 97.38-2.11L97.38-2.11 92.07-6.39Q95.85-11.79 97.69-19.84L97.69-19.84 93.06-19.71 92.92-26.23Q97.29-26.28 100.31-26.5L100.31-26.5Q100.31-33.16 100.22-34.74L100.22-34.74 106.02-34.96 106.2-26.82Q108-27 111.42-27.13L111.42-27.13 111.64-20.65Q109.84-20.52 107.78-20.38L107.78-20.38Q110.43-17.64 113.22-13.77L113.22-13.77 108.13-9.54Q107.1-11.7 106.25-13.28L106.25-13.28ZM125.19-12.11L125.19 3.33 119.07 3.28Q119.61-8.69 119.61-11.38L119.61-11.38Q118.89-6.52 114.7-0.18L114.7-0.18 109.39-4.41Q114.44-10.04 116.78-19.89L116.78-19.89 113.31-19.8 113.22-26.28Q116.28-26.37 119.3-26.55L119.3-26.55Q119.3-33.25 119.2-34.83L119.2-34.83 125.06-35.05 125.19-26.86Q127.94-27.04 132.57-27.18L132.57-27.18 132.84-20.65Q131.04-20.56 126.85-20.43L126.85-20.43Q132.03-10.04 133.78-3.1L133.78-3.1 127.62-0.36Q126.05-7.65 125.19-12.11L125.19-12.11ZM149.94-11.79L137.52-11.52 137.43-16.11Q140.58-16.11 144.45-16.2L144.45-16.2Q144.5-17.05 144.54-17.59L144.54-17.59Q142.16-17.46 138.56-17.37L138.56-17.37 138.51-21.87 144.63-22.14 144.63-22.54Q144.63-23.54 144.5-24.25L144.5-24.25 150.39-24.48 150.53-22.27Q153.94-22.41 156.69-22.45L156.69-22.45 156.91-17.91Q155.47-17.82 150.57-17.68L150.57-17.68 150.57-16.29Q154.66-16.47 157.72-16.47L157.72-16.47 158.09-11.97Q156.69-11.88 149.94-11.79L149.94-11.79ZM144.45-1.53L144.45-1.53Q144.5-2.79 144.54-3.33L144.54-3.33Q141.34-3.1 138.56-3.06L138.56-3.06 138.51-7.88Q141.79-7.96 144.63-8.1L144.63-8.1 144.63-8.55Q144.63-9.58 144.5-10.3L144.5-10.3 150.39-10.53 150.53-8.19 156.69-8.37 156.91-3.6Q155.88-3.55 150.57-3.42L150.57-3.42 150.57-1.98Q154.13-2.21 157.91-2.65L157.91-2.65 157.41 2.11Q149.31 3.01 137.88 3.46L137.88 3.46 137.16-1.3Q140.31-1.3 144.45-1.53ZM169.02 3.51L169.02 3.51Q167.49 3.51 161.82 2.97L161.82 2.97 161.32-2.97Q166-2.43 167.04-2.43L167.04-2.43Q167.35-2.43 167.53-2.65 167.72-2.88 167.72-5.98L167.72-5.98Q167.72-8.55 167.63-14.31L167.63-14.31Q160.34-13.99 159.25-13.95L159.25-13.95 159.16-19.44Q161.15-19.44 167.58-19.66L167.58-19.66Q167.58-21.96 167.44-24.48L167.44-24.48 173.03-24.66 173.12-23.49Q173.3-21.11 173.38-19.89L173.38-19.89Q175.23-20.07 177.7-20.16L177.7-20.16 177.97-14.67Q176.13-14.54 173.56-14.49L173.56-14.49Q173.75-7.83 173.75-5.67L173.75-5.67Q173.75-0.54 173.25 1.03L173.25 1.03Q172.94 1.89 172.39 2.38L172.39 2.38Q171 3.51 169.02 3.51ZM166.54-6.34L161.06-4.63Q159.93-8.46 157.72-11.25L157.72-11.25 163.03-12.78Q165.6-9.76 166.54-6.34L166.54-6.34ZM169.02-27.63L168.8-25.2 162.27-25.65Q162.27-26.77 162.41-27.49L162.41-27.49 151.83-27.4 151.92-25.47 145.08-25.29 145.22-27.18 137.38-27.04 137.29-32.63 144.94-32.71 144.76-34.52 151.06-34.96 151.34-32.85 162.85-33.07 162.9-35.01 169.29-34.88 169.29-33.3 177.34-33.34 177.7-27.81 169.02-27.63Z" transform="translate(-2.8299999237060547, 35.04999923706055)"></path></g> <!----> <!----> <!----> <!----> <!----> <!----> <!----></g></g> <g data-gra="path-slogan" fill-rule="" class="tp-slogan iconsvg-slogansvg" fill="#333" transform="translate(5,44.60000228881836)"><rect x="0" height="1" y="3.9750008583068848" width="26.64999771118164"></rect> <rect height="1" y="3.9750008583068848" width="26.64999771118164" x="138.4900016784668"></rect> <g transform="translate(29.64999771118164,0)"><g transform="scale(1)"><path d="M2.30-8.58L6.61-1.64L6.61-8.58L7.73-8.58L7.73 0L6.42 0L2.06-6.94L2.02-6.94L2.02 0L0.89 0L0.89-8.58L2.30-8.58ZM15.19 0L14.34-2.48L10.88-2.48L9.98 0L8.81 0L12.05-8.58L13.36-8.58L16.45 0L15.19 0ZM12.61-7.31L11.25-3.52L13.92-3.52L12.66-7.31L12.61-7.31ZM18.89-8.58L23.20-1.64L23.20-8.58L24.33-8.58L24.33 0L23.02 0L18.66-6.94L18.61-6.94L18.61 0L17.48 0L17.48-8.58L18.89-8.58ZM25.41-1.92L25.41-2.77L26.48-2.77L26.48-2.16Q26.48-0.75 27.80-0.75L27.80-0.75Q29.16-0.75 29.16-2.25L29.16-2.25L29.16-8.58L30.33-8.58L30.33-2.30Q30.28 0.09 27.84 0.14L27.84 0.14Q25.55 0.09 25.41-1.92L25.41-1.92ZM32.30-8.58L33.47-8.58L33.47 0L32.30 0L32.30-8.58ZM36.84-8.58L41.16-1.64L41.16-8.58L42.28-8.58L42.28 0L40.97 0L36.61-6.94L36.56-6.94L36.56 0L35.44 0L35.44-8.58L36.84-8.58ZM50.48-3.61L47.86-3.61L47.86-4.59L51.61-4.59L51.61 0L50.86 0L50.58-1.08Q49.59 0.09 47.77 0.14L47.77 0.14Q46.03 0.14 45.09-0.75L45.09-0.75Q43.69-2.06 43.73-4.36L43.73-4.36Q44.06-8.63 47.81-8.81L47.81-8.81Q51-8.63 51.47-6L51.47-6L50.34-6Q49.88-7.78 47.77-7.83L47.77-7.83Q45.09-7.64 44.95-4.31L44.95-4.31Q44.95-0.75 47.81-0.75L47.81-0.75Q48.84-0.75 49.59-1.31L49.59-1.31Q50.53-2.06 50.48-3.61L50.48-3.61ZM56.72-8.58L57.89-8.58L57.89-1.03L62.25-1.03L62.25 0L56.72 0L56.72-8.58ZM63.56-8.58L64.73-8.58L64.73 0L63.56 0L63.56-8.58ZM68.11-8.58L72.42-1.64L72.42-8.58L73.55-8.58L73.55 0L72.23 0L67.88-6.94L67.83-6.94L67.83 0L66.70 0L66.70-8.58L68.11-8.58ZM80.86-3.89L76.64-3.89L76.64 0L75.47 0L75.47-8.58L81.42-8.58L81.42-7.59L76.64-7.59L76.64-4.92L80.86-4.92L80.86-3.89ZM83.91-1.03L89.06-1.03L89.06 0L82.73 0L82.73-8.58L88.97-8.58L88.97-7.59L83.91-7.59L83.91-4.92L88.59-4.92L88.59-3.89L83.91-3.89L83.91-1.03ZM91.97-8.58L96.28-1.64L96.28-8.58L97.41-8.58L97.41 0L96.09 0L91.73-6.94L91.69-6.94L91.69 0L90.56 0L90.56-8.58L91.97-8.58ZM105.61-3.61L102.98-3.61L102.98-4.59L106.73-4.59L106.73 0L105.98 0L105.70-1.08Q104.72 0.09 102.89 0.14L102.89 0.14Q101.16 0.14 100.22-0.75L100.22-0.75Q98.81-2.06 98.86-4.36L98.86-4.36Q99.19-8.63 102.94-8.81L102.94-8.81Q106.13-8.63 106.59-6L106.59-6L105.47-6Q105-7.78 102.89-7.83L102.89-7.83Q100.22-7.64 100.08-4.31L100.08-4.31Q100.08-0.75 102.94-0.75L102.94-0.75Q103.97-0.75 104.72-1.31L104.72-1.31Q105.66-2.06 105.61-3.61L105.61-3.61Z" transform="translate(-0.890625, 8.8125)"></path></g></g></g></g></g><defs v-gra="od"></defs></svg>